<?xml version="1.0" encoding="UTF-8"?><svg id="Layer_1" xmlns="http://www.w3.org/2000/svg" viewBox="0 0 271 99"><defs><style>.cls-1{fill:#101111;}.cls-2{fill:#e4022e;}</style></defs><path class="cls-1" d="m21.79,88.57h1.28v4.05c-.63.35-1.86.8-3.3.8-2.85,0-4.74-2.01-4.74-4.81,0-2.96,2.03-5.02,5.06-5.02,1.18,0,2.15.31,2.7.55v1.31c-.65-.34-1.59-.73-2.67-.73-2.44,0-3.7,1.57-3.7,3.73,0,2.32,1.4,3.81,3.68,3.81.79,0,1.35-.15,1.7-.35v-3.35Zm6.91-4.9h-1.28v9.61h4.81v-1.15h-3.53v-8.46Zm14.8,1.43c.76.87,1.2,2.06,1.2,3.41,0,1.47-.52,2.74-1.4,3.62-.85.83-2,1.3-3.36,1.3s-2.42-.42-3.26-1.2c-.94-.87-1.48-2.17-1.48-3.69s.49-2.68,1.34-3.57c.85-.86,2.03-1.37,3.4-1.37,1.47,0,2.72.55,3.56,1.5Zm-.19,3.43c0-2.19-1.21-3.76-3.37-3.76-2.05,0-3.37,1.46-3.37,3.76s1.33,3.76,3.37,3.76,3.37-1.46,3.37-3.76Zm11.24,1.91c0,1.33-.84,2.84-3.34,2.84h-2.58v-9.61h2.77c1.77,0,2.57,1.22,2.57,2.35,0,.93-.43,1.72-1.27,2.08h0c.95.19,1.86,1.11,1.86,2.33Zm-4.64-2.64h1.15c.76,0,1.56-.54,1.56-1.53,0-.89-.52-1.44-1.63-1.44h-1.08v2.97Zm3.27,2.67c0-.86-.72-1.52-1.89-1.52h-1.38v3.18h1.31c1.28,0,1.96-.7,1.96-1.66Zm8.91-6.82l3.7,9.64h-1.37l-.96-2.51h-3.68l-.89,2.51h-1.27l3.65-9.64h.82Zm.94,6.01l-.99-2.9c-.17-.48-.29-.88-.36-1.2h-.01c-.09.35-.2.72-.37,1.18l-1.05,2.92h2.8Zm7.57-5.98h-1.28v9.61h4.81v-1.15h-3.53v-8.46Zm18.7,6.76c0,1.33-.84,2.84-3.34,2.84h-2.58v-9.61h2.77c1.77,0,2.57,1.22,2.57,2.35,0,.93-.43,1.72-1.27,2.08h0c.95.19,1.86,1.11,1.86,2.33Zm-4.64-2.64h1.15c.76,0,1.56-.54,1.56-1.53,0-.89-.52-1.44-1.63-1.44h-1.08v2.97Zm3.27,2.67c0-.86-.72-1.52-1.89-1.52h-1.38v3.18h1.31c1.28,0,1.96-.7,1.96-1.66Zm11.54-.61c0,.73-.16,1.37-.56,1.81-.37.39-.96.63-1.85.63-.78,0-1.33-.25-1.69-.63-.48-.5-.63-1.22-.63-1.9v-6.09h-1.28v6.12c0,.95.19,2.03.92,2.75.56.54,1.41.88,2.65.88,1.33,0,2.23-.38,2.82-.99.62-.64.89-1.55.89-2.49v-6.27h-1.28v6.18Zm6.92-3.92c0-.85.74-1.21,1.61-1.21.78,0,1.54.28,2.12.64v-1.28c-.45-.23-1.17-.48-2.18-.48-1.82,0-2.85,1.09-2.85,2.46,0,.74.26,1.3.66,1.74,1.15,1.28,3.44,1.6,3.44,3.18,0,.95-.97,1.34-1.79,1.34-.92,0-1.69-.39-2.09-.7l-.58,1.01c.56.38,1.43.8,2.71.8,1.76,0,3.11-1.02,3.11-2.58,0-2.92-4.18-2.9-4.18-4.91Zm8.1,7.35h1.28v-9.61h-1.28v9.61Zm13.13-3.37c0,.48.02.89.03,1.25h-.03c-.19-.39-.46-.76-1.04-1.53l-4.45-5.96h-1.31v9.61h1.28v-6.43c0-.48-.01-.87-.04-1.2h.03c.2.38.46.76.98,1.43l4.64,6.2h1.2v-9.61h-1.28v6.24Zm7.61-.98h3.13v-1.14h-3.13v-2.97h3.16l.42-1.15h-4.86v9.61h4.89v-1.15h-3.6v-3.19Zm9.34-3c0-.85.74-1.21,1.61-1.21.78,0,1.54.28,2.12.64v-1.28c-.45-.23-1.17-.48-2.18-.48-1.82,0-2.85,1.09-2.85,2.46,0,.74.26,1.3.66,1.74,1.15,1.28,3.44,1.6,3.44,3.18,0,.95-.97,1.34-1.79,1.34-.92,0-1.69-.39-2.09-.7l-.58,1.01c.56.38,1.43.8,2.71.8,1.76,0,3.11-1.02,3.11-2.58,0-2.92-4.18-2.9-4.18-4.91Zm9.2,0c0-.85.74-1.21,1.61-1.21.78,0,1.54.28,2.12.64v-1.28c-.45-.23-1.17-.48-2.18-.48-1.82,0-2.85,1.09-2.85,2.46,0,.74.26,1.3.66,1.74,1.15,1.28,3.44,1.6,3.44,3.18,0,.95-.97,1.34-1.79,1.34-.92,0-1.69-.39-2.09-.7l-.58,1.01c.56.38,1.43.8,2.71.8,1.76,0,3.11-1.02,3.11-2.58,0-2.92-4.18-2.9-4.18-4.91Zm14.93,0c0-.85.74-1.21,1.61-1.21.78,0,1.54.28,2.12.64v-1.28c-.45-.23-1.17-.48-2.18-.48-1.82,0-2.85,1.09-2.85,2.46,0,.74.26,1.3.66,1.74,1.15,1.28,3.44,1.6,3.44,3.18,0,.95-.97,1.34-1.79,1.34-.92,0-1.69-.39-2.09-.7l-.58,1.01c.56.38,1.43.8,2.71.8,1.76,0,3.11-1.02,3.11-2.58,0-2.92-4.18-2.9-4.18-4.91Zm15.87-.83c.76.87,1.2,2.06,1.2,3.41,0,1.47-.52,2.74-1.4,3.62-.85.83-2,1.3-3.36,1.3s-2.42-.42-3.26-1.2c-.94-.87-1.48-2.17-1.48-3.69s.49-2.68,1.34-3.57c.85-.86,2.03-1.37,3.4-1.37,1.47,0,2.72.55,3.56,1.5Zm-.19,3.43c0-2.19-1.21-3.76-3.37-3.76-2.05,0-3.37,1.46-3.37,3.76s1.33,3.76,3.37,3.76,3.37-1.46,3.37-3.76Zm6.6-4.85h-1.28v9.61h4.81v-1.15h-3.53v-8.46Zm13.04,6.18c0,.73-.16,1.37-.56,1.81-.37.39-.96.63-1.85.63-.78,0-1.33-.25-1.69-.63-.48-.5-.63-1.22-.63-1.9v-6.09h-1.28v6.12c0,.95.19,2.03.92,2.75.56.54,1.41.88,2.65.88,1.33,0,2.23-.38,2.82-.99.62-.64.89-1.55.89-2.49v-6.27h-1.28v6.18Zm4.96-5.03h2.72v8.46h1.3v-8.46h2.65l.39-1.15h-7.06v1.15Zm10.47,8.46h1.28v-9.61h-1.28v9.61Zm13.52-8.18c.76.87,1.2,2.06,1.2,3.41,0,1.47-.52,2.74-1.4,3.62-.85.83-2,1.3-3.36,1.3s-2.42-.42-3.26-1.2c-.94-.87-1.48-2.17-1.48-3.69s.49-2.68,1.34-3.57c.85-.86,2.03-1.37,3.4-1.37,1.47,0,2.72.55,3.56,1.5Zm-.19,3.43c0-2.19-1.21-3.76-3.37-3.76-2.05,0-3.37,1.46-3.37,3.76s1.33,3.76,3.37,3.76,3.37-1.46,3.37-3.76Zm12.12,1.39c0,.48.02.89.03,1.25h-.03c-.19-.39-.46-.76-1.04-1.53l-4.45-5.96h-1.31v9.61h1.28v-6.43c0-.48-.01-.87-.04-1.2h.03c.2.38.46.76.98,1.43l4.64,6.2h1.2v-9.61h-1.28v6.24Zm6.85-3.98c0-.85.74-1.21,1.61-1.21.78,0,1.54.28,2.12.64v-1.28c-.45-.23-1.17-.48-2.18-.48-1.82,0-2.85,1.09-2.85,2.46,0,.74.26,1.3.66,1.74,1.15,1.28,3.44,1.6,3.44,3.18,0,.95-.97,1.34-1.79,1.34-.92,0-1.69-.39-2.09-.7l-.58,1.01c.56.38,1.43.8,2.71.8,1.76,0,3.11-1.02,3.11-2.58,0-2.92-4.18-2.9-4.18-4.91Zm-69.42-59.16c-14.01,0-25.42,11.4-25.42,25.41s11.4,25.41,25.42,25.41,25.41-11.4,25.41-25.41-11.4-25.41-25.41-25.41Zm-.03-4.88c4.63,0,8.4-3.68,8.4-8.21s-3.69-8.12-8.4-8.12-8.31,3.64-8.31,8.12,3.65,8.21,8.31,8.21Zm-63.39,23.84c-3.69-1.42-6.87-2.65-6.87-4.79,0-1.87,1.78-2.81,5.29-2.81,4.61,0,8.64,1.42,12.38,2.88l1.49.58v-11.87l-.68-.28c-3.99-1.62-8.33-2.37-13.66-2.37-11.03,0-18.16,5.67-18.16,14.44,0,9.64,7.51,12.56,13.54,14.91,4.49,1.75,7.25,2.95,7.25,5.49,0,3.41-5.07,3.67-6.63,3.67-3.82,0-7.9-1.35-11.49-3.81l-1.09-.74-4.64,10.47.82.5c4.74,2.89,10.54,4.36,17.25,4.36,12.02,0,19.49-5.79,19.49-15.11,0-10.01-8.26-13.19-14.29-15.52Zm123.12,2.08v27.6h13.63v-31.03c0-12.76-7.9-17.3-15.3-17.3-5.46,0-10.29,1.7-15.65,5.53l-.11.08-4.54-4.55h-7.59v47.28h13.63v-32.1l.06-.05c3.83-2.81,7.2-4.17,10.28-4.17,3.91,0,5.58,2.61,5.58,8.72Zm-163.58,12.42l-.06.05c-3.84,2.81-7.2,4.17-10.28,4.17-3.91,0-5.58-2.61-5.58-8.72v-27.6h-13.63v31.03c0,12.76,7.9,17.3,15.3,17.3,5.46,0,10.29-1.7,15.65-5.53l.11-.08,4.55,4.55h7.57V28.13h-13.63v32.1Zm67.16-31.78l-.32-.32h-7.27v47.28h13.63v-40.92l-6.04-6.04h0Zm-123.1-5.52v5.2h-6.58v10.96h6.58v36.32h13.63v-36.32h8.96v-5.01l-5.97-5.95h-2.99v-6.05c0-4.94,2.35-4.94,3.35-4.94h5.95V5.73h-5.91c-3.99,0-17.02,1.24-17.02,17.21Z"/><path class="cls-2" d="m182.37,38.93c-7.32,0-13.27,5.95-13.27,13.27s5.95,13.27,13.27,13.27,13.27-5.95,13.27-13.27-5.95-13.27-13.27-13.27"/></svg>